<svg width="69" height="184" viewBox="0 0 69 184" fill="none" xmlns="http://www.w3.org/2000/svg">
<path d="M0 93.6219C0.121246 74.3604 14.6707 59 34.6763 59C54.1968 59 69.4737 74.3604 68.9888 94.5972C68.625 112.64 53.7118 128 34.555 128C14.1857 128 0 111.299 0 93.6219ZM34.6763 124.465C51.5294 124.465 65.3514 110.689 65.5939 94.1095C65.8364 78.1396 53.5906 62.6572 34.6763 62.6572C17.2169 62.6572 3.51612 76.0671 3.39487 93.2562C3.27363 110.567 17.3381 124.343 34.6763 124.465Z" fill="#FCFAF5"/>
<path d="M26.4321 22.0259C24.9192 22.1488 23.4063 22.6403 22.0195 22.3945C18.8676 21.7801 18.2373 18.2167 19.8762 16.3735C24.1628 11.3355 28.4493 6.17462 32.7358 1.01374C33.8705 -0.337914 34.8791 -0.337914 36.0138 1.01374C40.3003 6.05174 44.5868 10.9669 48.8734 16.0049C50.1341 17.4794 50.3862 19.4454 49.3776 20.92C48.243 22.5174 46.0997 23.1318 43.9564 22.3945C43.5782 22.2716 43.0739 22.0259 42.4436 21.7801C42.4436 23.2546 42.4436 24.6063 42.4436 25.958C42.4436 29.1528 42.5696 32.3476 42.5696 35.6653C42.5696 37.2627 41.9393 38 40.1742 38C36.1398 38 32.2315 37.8771 28.1971 37.8771C26.8103 37.8771 26.306 37.2627 26.306 35.7882C26.4321 30.996 26.4321 26.5724 26.4321 22.0259ZM34.3748 4.08569C30.4665 8.75506 26.6843 13.3015 22.902 17.9709C22.6499 18.3395 22.6499 18.831 22.5238 19.1997C23.0281 19.1997 23.6585 19.4454 24.0367 19.1997C24.7932 18.831 25.5496 18.2167 26.18 17.6023C26.9364 16.865 27.8189 16.7421 28.7015 16.9879C29.584 17.3565 29.8361 18.0938 29.7101 19.0768C29.7101 23.7462 29.7101 28.5384 29.7101 33.2078C29.7101 33.5764 29.7101 33.945 29.7101 34.4365C32.8619 34.4365 35.8877 34.4365 39.0396 34.4365C39.0396 33.945 39.0396 33.4535 39.0396 32.962C39.0396 28.2927 39.1656 23.5004 39.2917 18.831C39.2917 18.2167 39.6699 17.3565 40.1742 17.1108C40.8046 16.865 41.6871 16.9879 42.4436 17.2336C42.9479 17.3565 43.2 17.9709 43.7043 18.3395C44.2086 18.7082 44.5868 19.0768 45.2172 19.3226C45.5954 19.4454 46.0997 19.1997 46.604 19.0768C46.4779 18.7082 46.4779 18.2167 46.2258 17.848C45.3433 16.7421 44.3347 15.6362 43.4522 14.5303C40.4264 10.9669 37.4006 7.52628 34.3748 4.08569Z" fill="#FCFAF5"/>
<path d="M27.0682 162.338C27.0682 158.45 27.0682 154.562 27.0682 150.795C27.0682 148.608 27.5526 148 29.7323 148C33.244 148 36.8769 148 40.3886 148C42.0839 148 42.6894 148.729 42.6894 150.43C42.6894 154.44 42.6894 158.45 42.6894 162.217C44.0215 162.095 45.5957 161.852 47.0488 162.095C49.834 162.703 50.9239 165.741 49.1074 168.049C44.9902 173.153 40.7519 178.135 36.5136 183.238C35.6659 184.332 34.6972 184.21 33.7284 183.117C29.6112 178.256 25.3729 173.396 21.2556 168.535C19.8025 166.834 19.6814 165.011 20.5291 163.553C21.4978 162.095 23.5564 161.488 25.494 161.974C25.8572 161.852 26.4627 162.095 27.0682 162.338ZM39.1777 151.402C36.1503 151.402 33.244 151.402 30.4589 151.402C30.4589 155.898 30.4589 160.273 30.4589 164.768C30.4589 165.741 30.701 166.956 29.4901 167.442C28.2791 167.928 27.3104 167.32 26.4627 166.47C25.9783 165.984 25.2518 165.497 24.6463 165.133C24.283 164.89 23.6775 165.133 23.0721 165.133C23.0721 165.254 22.951 165.498 22.951 165.619C26.826 170.115 30.8221 174.732 34.8183 179.35C38.5722 174.975 42.205 170.844 45.7168 166.591C45.959 166.227 45.959 165.741 46.2012 165.254C45.7168 165.254 44.9902 165.011 44.6269 165.254C43.9004 165.619 43.2949 166.348 42.6894 166.956C41.9628 167.685 41.1152 167.928 40.2675 167.563C39.2988 167.199 39.1777 166.348 39.1777 165.497C39.1777 161.609 39.1777 157.842 39.1777 153.954C39.1777 152.982 39.1777 152.131 39.1777 151.402Z" fill="#FCFAF5"/>
</svg>
